<?xml version="1.0" standalone="no"?>
<!DOCTYPE svg PUBLIC "-//W3C//DTD SVG 20010904//EN"
 "http://www.w3.org/TR/2001/REC-SVG-20010904/DTD/svg10.dtd">
<svg version="1.0" xmlns="http://www.w3.org/2000/svg"
 width="700.000000pt" height="700.000000pt" viewBox="0 0 700.000000 700.000000"
 preserveAspectRatio="xMidYMid meet">
<metadata>
Created by potrace 1.11, written by Peter Selinger 2001-2013
</metadata>
<g transform="translate(0.000000,700.000000) scale(0.100000,-0.100000)"
fill="#000000" stroke="none">
<path d="M54 6989 c-11 -6 -28 -23 -37 -39 -15 -25 -17 -88 -17 -663 0 -380 4
-646 10 -661 5 -14 21 -33 36 -43 25 -16 57 -18 318 -19 312 -1 340 3 370 48
14 21 16 69 17 331 l0 307 307 0 c263 0 311 2 330 16 46 32 49 50 48 365 -1
266 -3 298 -19 323 -10 15 -29 31 -43 36 -35 14 -1292 12 -1320 -1z m1176
-365 l0 -170 -302 0 c-322 -1 -333 -2 -365 -50 -14 -22 -16 -64 -17 -327 l-1
-302 -170 0 -170 0 -1 500 c0 275 1 505 3 510 2 7 180 10 513 10 l510 0 0
-171z"/>
<path d="M5614 6981 c-17 -11 -36 -32 -41 -48 -5 -15 -9 -160 -8 -327 l1 -298
32 -29 32 -29 310 0 310 0 0 -310 0 -310 29 -32 29 -32 303 -1 c329 -1 350 2
376 55 17 33 19 1286 2 1323 -6 13 -23 31 -39 40 -25 15 -89 17 -667 17 -609
0 -639 -1 -669 -19z m1177 -191 c4 -14 4 -997 1 -1007 -3 -10 -46 -13 -171
-13 l-168 0 0 304 c0 267 -2 308 -16 330 -32 48 -42 50 -364 50 l-303 0 0 171
0 170 510 0 c281 0 511 -2 511 -5z"/>
<path d="M2910 6073 c-162 -23 -319 -72 -468 -147 -73 -37 -227 -138 -277
-181 -157 -137 -275 -283 -356 -440 -46 -88 -57 -102 -93 -119 -219 -102 -395
-310 -473 -561 l-27 -90 -1 -480 c0 -264 3 -492 7 -506 9 -39 47 -109 80 -152
l30 -37 -33 -37 c-17 -20 -44 -62 -58 -93 -25 -53 -26 -63 -29 -267 -3 -175
-1 -222 13 -270 30 -105 106 -196 200 -239 66 -30 100 -36 222 -38 56 -1 104
-4 106 -6 3 -3 8 -45 11 -95 44 -578 444 -1101 999 -1306 183 -68 472 -113
550 -87 66 23 85 111 36 164 -24 26 -43 30 -164 39 -310 24 -602 161 -830 390
-193 193 -309 407 -367 677 -20 97 -22 132 -25 620 l-3 518 35 14 c108 46 261
181 339 301 110 169 154 307 161 505 2 52 4 97 4 100 1 3 69 5 152 5 168 0
199 7 219 56 25 60 5 120 -46 139 -14 6 -124 10 -244 10 l-220 0 -32 -29 -33
-29 -7 -154 c-8 -186 -12 -209 -48 -319 -61 -184 -178 -324 -334 -399 -136
-65 -297 -84 -391 -46 -42 17 -80 63 -93 112 -5 16 -7 220 -6 454 1 394 3 431
22 502 58 216 189 367 403 465 69 32 82 47 118 133 34 78 106 194 172 276 203
250 518 418 839 448 36 4 330 7 654 7 l590 1 33 33 c51 51 42 122 -20 157 -31
18 -1194 19 -1317 1z m-1157 -2828 c2 -5 3 -147 3 -315 l-1 -305 -95 -3 c-141
-5 -206 29 -237 123 -5 17 -9 109 -8 205 1 140 5 181 18 206 21 40 70 82 105
90 15 3 30 6 35 7 31 7 177 1 180 -8z"/>
<path d="M4593 6078 c-37 -10 -64 -44 -69 -86 -4 -35 28 -90 59 -101 13 -5
100 -10 193 -10 93 -1 185 -4 204 -7 363 -61 618 -371 603 -734 -12 -292 -210
-553 -489 -644 -28 -9 -62 -20 -75 -23 -13 -4 -426 -9 -917 -10 -511 -2 -903
-8 -917 -13 -77 -29 -74 -150 5 -183 21 -9 254 -12 919 -12 l891 1 17 -76 c17
-69 18 -149 18 -980 -1 -903 -1 -905 -24 -1010 -81 -373 -290 -670 -616 -875
-127 -79 -309 -150 -440 -171 -22 -3 -42 -7 -45 -9 -3 -2 -46 -6 -95 -10 -50
-3 -102 -8 -118 -11 -31 -6 -77 -61 -77 -92 0 -72 51 -110 143 -107 80 4 172
14 222 25 22 5 56 12 75 15 63 11 243 76 330 120 323 162 605 462 730 775 12
30 26 64 31 75 35 84 75 271 85 399 4 44 8 83 11 86 2 2 57 5 121 6 92 2 129
7 174 23 74 29 136 77 180 143 62 90 70 138 66 381 l-3 212 -31 65 c-39 81
-100 142 -183 183 -61 30 -73 32 -196 35 l-131 4 -1 322 c-1 261 -4 336 -18
401 -30 143 -33 127 29 154 208 89 399 296 480 521 169 467 -64 979 -528 1165
-38 15 -119 37 -181 50 -50 10 -398 13 -432 3z m888 -2838 c35 -18 69 -51 87
-85 12 -24 16 -67 17 -205 1 -184 -3 -216 -41 -267 -35 -46 -91 -63 -204 -60
l-95 2 -1 310 c-1 171 2 312 7 315 15 10 207 2 230 -10z"/>
<path d="M2674 3220 c-12 -4 -31 -21 -43 -36 -19 -24 -21 -39 -21 -150 0 -121
1 -124 28 -154 21 -25 35 -31 68 -32 87 -1 110 41 108 199 -1 122 -13 154 -66
172 -36 13 -45 13 -74 1z"/>
<path d="M4245 3217 c-49 -22 -60 -55 -60 -182 1 -124 10 -154 54 -176 39 -18
51 -19 86 -4 57 23 65 45 65 185 0 125 0 127 -28 153 -34 33 -77 41 -117 24z"/>
<path d="M2961 2134 c-37 -16 -61 -63 -54 -108 9 -57 139 -170 262 -227 173
-80 358 -94 561 -41 49 12 176 77 230 117 66 49 127 116 134 148 14 57 -50
132 -103 122 -9 -2 -22 -4 -29 -4 -7 -1 -37 -23 -65 -50 -115 -107 -240 -158
-391 -159 -155 -1 -277 46 -393 151 -35 31 -69 57 -76 58 -6 0 -19 2 -28 4 -8
1 -30 -3 -48 -11z"/>
<path d="M56 1421 c-17 -9 -36 -27 -43 -41 -17 -33 -19 -1271 -2 -1318 22 -63
9 -62 712 -62 l634 0 33 23 c19 12 36 33 40 47 3 14 6 159 5 324 l-1 298 -32
29 c-36 33 14 29 -460 30 l-192 0 0 232 c1 420 4 382 -29 419 l-29 33 -303 1
c-254 0 -307 -2 -333 -15z m491 -494 c0 -320 1 -332 48 -363 21 -14 67 -16
330 -15 l305 0 -2 -172 -3 -171 -508 -1 c-331 0 -507 3 -508 10 -4 26 -5 1001
-2 1008 3 4 80 7 172 7 l168 0 0 -303z"/>
<path d="M6301 1419 c-16 -10 -33 -23 -37 -31 -5 -7 -11 -152 -14 -323 l-5
-310 -155 -2 c-85 -1 -224 -2 -307 -3 l-153 0 -32 -29 -32 -29 -1 -303 c-1
-329 2 -350 55 -376 19 -10 174 -13 668 -13 l644 0 34 34 34 34 0 640 c0 383
-4 651 -10 666 -5 14 -21 33 -37 43 -25 16 -55 18 -326 19 -265 0 -301 -2
-326 -17z m494 -701 c0 -330 -4 -509 -10 -511 -9 -3 -971 -1 -1002 2 -10 1
-13 42 -13 170 l0 169 306 0 c329 1 337 2 365 54 9 17 12 109 12 326 l0 302
171 -2 171 -3 0 -507z"/>
</g>
</svg>
